<?xml version="1.0" encoding="iso-8859-1"?>
<!-- Uploaded to: SVG Repo, www.svgrepo.com, Generator: SVG Repo Mixer Tools -->
<svg height="800px" width="800px" version="1.1" id="Layer_1" xmlns="http://www.w3.org/2000/svg" xmlns:xlink="http://www.w3.org/1999/xlink" 
	 viewBox="0 0 512 512" xml:space="preserve">
<polygon style="fill:#C6D9B0;" points="268.288,81.587 204.8,18.108 82.108,140.8 168.533,140.8 "/>
<polygon style="fill:#A0BF7C;" points="379.315,17.485 169.071,140.8 450.509,140.8 "/>
<circle style="fill:#FFE085;" cx="371.2" cy="320" r="25.6"/>
<path style="fill:#FF9F99;" d="M294.4,396.8V243.2h204.8v153.6H294.4z M371.2,294.4c-14.114,0-25.6,11.486-25.6,25.6
	c0,14.114,11.486,25.6,25.6,25.6s25.6-11.486,25.6-25.6C396.8,305.886,385.314,294.4,371.2,294.4z"/>
<path style="fill:#FF877F;" d="M12.8,499.2V140.8h486.4v102.4h-192c-7.057,0-12.8,5.743-12.8,12.8v128c0,7.057,5.743,12.8,12.8,12.8
	h192v102.4H12.8z"/>
<g>
	<path style="fill:#573A32;" d="M486.4,128h-28.501L384,0L270.396,65.596L204.8,0l-128,128H25.6C11.46,128,0,139.46,0,153.6v332.8
		C0,500.54,11.46,512,25.6,512h460.8c14.14,0,25.6-11.46,25.6-25.6V153.6C512,139.46,500.54,128,486.4,128z M374.63,34.97
		L428.339,128H213.495L374.63,34.97z M204.8,36.207l42.641,42.641L162.295,128h-49.297L204.8,36.207z M486.4,384H307.2V256h179.2
		V384z M486.4,230.4H307.2c-14.14,0-25.6,11.46-25.6,25.6v128c0,14.14,11.46,25.6,25.6,25.6h179.2v76.8H25.6V153.6h460.8V230.4z"/>
	<path style="fill:#573A32;" d="M371.2,358.4c21.205,0,38.4-17.195,38.4-38.4c0-21.205-17.195-38.4-38.4-38.4
		c-21.205,0-38.4,17.195-38.4,38.4C332.8,341.205,349.995,358.4,371.2,358.4z M371.2,307.2c7.057,0,12.8,5.743,12.8,12.8
		c0,7.057-5.743,12.8-12.8,12.8s-12.8-5.743-12.8-12.8C358.4,312.943,364.143,307.2,371.2,307.2z"/>
</g>
</svg>